<mxfile host="Electron" modified="2024-01-19T11:40:15.050Z" agent="Mozilla/5.0 (Windows NT 10.0; Win64; x64) AppleWebKit/537.36 (KHTML, like Gecko) draw.io/21.6.1 Chrome/112.0.5615.204 Electron/24.6.1 Safari/537.36" etag="nwEfCdaHjt3-pg0CNVHU" version="21.6.1" type="device" pages="2">
  <diagram name="Page-1" id="ZfqbuEP5Iuo1F0AxIvN3">
    <mxGraphModel dx="1418" dy="820" grid="1" gridSize="10" guides="1" tooltips="1" connect="1" arrows="1" fold="1" page="1" pageScale="1" pageWidth="1100" pageHeight="850" math="0" shadow="0">
      <root>
        <mxCell id="0" />
        <mxCell id="1" parent="0" />
        <mxCell id="TOT-_v6R7QztRLe_0nVt-1" value="Website" style="sketch=0;pointerEvents=1;shadow=0;dashed=0;html=1;strokeColor=none;fillColor=#505050;labelPosition=center;verticalLabelPosition=bottom;verticalAlign=top;outlineConnect=0;align=center;shape=mxgraph.office.concepts.web_page;" parent="1" vertex="1">
          <mxGeometry x="190" y="273" width="90" height="104" as="geometry" />
        </mxCell>
        <mxCell id="TOT-_v6R7QztRLe_0nVt-9" value="Public Website&lt;br style=&quot;border-color: var(--border-color);&quot;&gt;Information" style="rounded=0;whiteSpace=wrap;html=1;fillColor=#dae8fc;strokeColor=#6c8ebf;" parent="1" vertex="1">
          <mxGeometry x="640" y="272" width="120" height="100" as="geometry" />
        </mxCell>
        <mxCell id="TOT-_v6R7QztRLe_0nVt-10" value="Statistics Collection" style="rounded=0;whiteSpace=wrap;html=1;fillColor=#dae8fc;strokeColor=#6c8ebf;" parent="1" vertex="1">
          <mxGeometry x="640" y="372" width="120" height="98" as="geometry" />
        </mxCell>
        <mxCell id="TOT-_v6R7QztRLe_0nVt-11" value="Style, scripts and other effects" style="rounded=0;whiteSpace=wrap;html=1;fillColor=#dae8fc;strokeColor=#6c8ebf;" parent="1" vertex="1">
          <mxGeometry x="640" y="470" width="120" height="100" as="geometry" />
        </mxCell>
        <mxCell id="TOT-_v6R7QztRLe_0nVt-14" value="DataBase" style="shape=datastore;whiteSpace=wrap;html=1;" parent="1" vertex="1">
          <mxGeometry x="979" y="236.5" width="60" height="60" as="geometry" />
        </mxCell>
        <mxCell id="TOT-_v6R7QztRLe_0nVt-15" value="File Storage" style="sketch=0;outlineConnect=0;fontColor=#232F3E;gradientColor=none;fillColor=#232F3D;strokeColor=none;dashed=0;verticalLabelPosition=bottom;verticalAlign=top;align=center;html=1;fontSize=12;fontStyle=0;aspect=fixed;pointerEvents=1;shape=mxgraph.aws4.folder;" parent="1" vertex="1">
          <mxGeometry x="970" y="336.5" width="78" height="71" as="geometry" />
        </mxCell>
        <mxCell id="TOT-_v6R7QztRLe_0nVt-16" value="Auth" style="rounded=0;whiteSpace=wrap;html=1;" parent="1" vertex="1">
          <mxGeometry x="640" y="72" width="120" height="100" as="geometry" />
        </mxCell>
        <mxCell id="TOT-_v6R7QztRLe_0nVt-17" value="Websites Management" style="rounded=0;whiteSpace=wrap;html=1;fillColor=#f8cecc;strokeColor=#b85450;" parent="1" vertex="1">
          <mxGeometry x="640" y="172" width="120" height="100" as="geometry" />
        </mxCell>
        <mxCell id="TOT-_v6R7QztRLe_0nVt-18" value="REST&lt;br&gt;API" style="rounded=0;whiteSpace=wrap;html=1;" parent="1" vertex="1">
          <mxGeometry x="580" y="72" width="60" height="398" as="geometry" />
        </mxCell>
        <mxCell id="TOT-_v6R7QztRLe_0nVt-19" value="Files Shareing" style="rounded=0;whiteSpace=wrap;html=1;" parent="1" vertex="1">
          <mxGeometry x="580" y="470" width="60" height="100" as="geometry" />
        </mxCell>
        <mxCell id="TOT-_v6R7QztRLe_0nVt-20" value="Public - Protected by CORS" style="shape=hexagon;perimeter=hexagonPerimeter2;whiteSpace=wrap;html=1;fixedSize=1;fillColor=#dae8fc;strokeColor=#6c8ebf;" parent="1" vertex="1">
          <mxGeometry x="360" y="70" width="170" height="47" as="geometry" />
        </mxCell>
        <mxCell id="TOT-_v6R7QztRLe_0nVt-21" value="Full Public" style="shape=hexagon;perimeter=hexagonPerimeter2;whiteSpace=wrap;html=1;fixedSize=1;fillColor=#d5e8d4;strokeColor=#82b366;" parent="1" vertex="1">
          <mxGeometry x="170" y="70" width="170" height="47" as="geometry" />
        </mxCell>
        <mxCell id="TOT-_v6R7QztRLe_0nVt-22" value="Auth Protected" style="shape=hexagon;perimeter=hexagonPerimeter2;whiteSpace=wrap;html=1;fixedSize=1;fillColor=#f8cecc;strokeColor=#b85450;" parent="1" vertex="1">
          <mxGeometry x="260" y="135" width="170" height="47" as="geometry" />
        </mxCell>
        <mxCell id="TOT-_v6R7QztRLe_0nVt-23" value="DbContext" style="rounded=0;whiteSpace=wrap;html=1;" parent="1" vertex="1">
          <mxGeometry x="860" y="72" width="70" height="128" as="geometry" />
        </mxCell>
        <mxCell id="TOT-_v6R7QztRLe_0nVt-24" value="All &lt;b&gt;management operations&lt;/b&gt; are &lt;b&gt;ptorected by Auth&lt;/b&gt;" style="shape=hexagon;perimeter=hexagonPerimeter2;whiteSpace=wrap;html=1;fixedSize=1;fillColor=#f8cecc;strokeColor=#b85450;" parent="1" vertex="1">
          <mxGeometry x="170" y="10" width="360" height="47" as="geometry" />
        </mxCell>
        <mxCell id="TOT-_v6R7QztRLe_0nVt-25" value="Models" style="rounded=0;whiteSpace=wrap;html=1;" parent="1" vertex="1">
          <mxGeometry x="860" y="200" width="70" height="250" as="geometry" />
        </mxCell>
        <mxCell id="TOT-_v6R7QztRLe_0nVt-26" value="Repo" style="rounded=0;whiteSpace=wrap;html=1;" parent="1" vertex="1">
          <mxGeometry x="780" y="72" width="80" height="258" as="geometry" />
        </mxCell>
        <mxCell id="TOT-_v6R7QztRLe_0nVt-27" value="Files&lt;br&gt;Management" style="rounded=0;whiteSpace=wrap;html=1;" parent="1" vertex="1">
          <mxGeometry x="780" y="330" width="80" height="240" as="geometry" />
        </mxCell>
        <mxCell id="TOT-_v6R7QztRLe_0nVt-28" value="Files Accessor" style="rounded=0;whiteSpace=wrap;html=1;" parent="1" vertex="1">
          <mxGeometry x="860" y="442" width="70" height="128" as="geometry" />
        </mxCell>
      </root>
    </mxGraphModel>
  </diagram>
  <diagram id="nfsJNLR3mH0LoLk7Z8MT" name="SecuritySystem">
    <mxGraphModel dx="1493" dy="13" grid="1" gridSize="10" guides="1" tooltips="1" connect="1" arrows="1" fold="1" page="1" pageScale="1" pageWidth="1100" pageHeight="850" math="0" shadow="0">
      <root>
        <mxCell id="0" />
        <mxCell id="1" parent="0" />
        <mxCell id="czs-m71-U2xIG_K7uHOS-11" style="edgeStyle=orthogonalEdgeStyle;rounded=0;orthogonalLoop=1;jettySize=auto;html=1;" edge="1" parent="1" source="qGoDjbubHYWRGXqa84R0-1" target="czs-m71-U2xIG_K7uHOS-9">
          <mxGeometry relative="1" as="geometry" />
        </mxCell>
        <mxCell id="qGoDjbubHYWRGXqa84R0-1" value="User" style="shape=umlActor;verticalLabelPosition=bottom;verticalAlign=top;html=1;outlineConnect=0;" parent="1" vertex="1">
          <mxGeometry x="85" y="1170" width="30" height="60" as="geometry" />
        </mxCell>
        <mxCell id="czs-m71-U2xIG_K7uHOS-10" style="edgeStyle=orthogonalEdgeStyle;rounded=0;orthogonalLoop=1;jettySize=auto;html=1;" edge="1" parent="1" source="qGoDjbubHYWRGXqa84R0-2" target="czs-m71-U2xIG_K7uHOS-9">
          <mxGeometry relative="1" as="geometry" />
        </mxCell>
        <mxCell id="qGoDjbubHYWRGXqa84R0-2" value="WebPage" style="ellipse;shape=cloud;whiteSpace=wrap;html=1;" parent="1" vertex="1">
          <mxGeometry x="40" y="1320" width="120" height="80" as="geometry" />
        </mxCell>
        <mxCell id="qGoDjbubHYWRGXqa84R0-7" style="edgeStyle=orthogonalEdgeStyle;rounded=0;orthogonalLoop=1;jettySize=auto;html=1;entryX=0;entryY=0.5;entryDx=0;entryDy=0;" parent="1" source="qGoDjbubHYWRGXqa84R0-4" target="qGoDjbubHYWRGXqa84R0-6" edge="1">
          <mxGeometry relative="1" as="geometry" />
        </mxCell>
        <mxCell id="qGoDjbubHYWRGXqa84R0-8" value="Domain data like headers and requester" style="edgeLabel;html=1;align=center;verticalAlign=middle;resizable=0;points=[];fontStyle=1;fontSize=13;" parent="qGoDjbubHYWRGXqa84R0-7" vertex="1" connectable="0">
          <mxGeometry x="0.6667" y="-5" relative="1" as="geometry">
            <mxPoint x="-100" y="-5" as="offset" />
          </mxGeometry>
        </mxCell>
        <mxCell id="8sM5rEdZGpGG4iv7RLSA-2" style="edgeStyle=orthogonalEdgeStyle;rounded=0;orthogonalLoop=1;jettySize=auto;html=1;entryX=0;entryY=0.5;entryDx=0;entryDy=0;" parent="1" source="qGoDjbubHYWRGXqa84R0-4" target="8sM5rEdZGpGG4iv7RLSA-1" edge="1">
          <mxGeometry relative="1" as="geometry">
            <Array as="points">
              <mxPoint x="560" y="1420" />
            </Array>
          </mxGeometry>
        </mxCell>
        <mxCell id="8sM5rEdZGpGG4iv7RLSA-3" value="UserPass" style="edgeLabel;html=1;align=center;verticalAlign=middle;resizable=0;points=[];fontStyle=1;fontSize=12;" parent="8sM5rEdZGpGG4iv7RLSA-2" vertex="1" connectable="0">
          <mxGeometry x="0.2" y="-4" relative="1" as="geometry">
            <mxPoint as="offset" />
          </mxGeometry>
        </mxCell>
        <mxCell id="qGoDjbubHYWRGXqa84R0-4" value="Endpoint" style="rounded=0;whiteSpace=wrap;html=1;" parent="1" vertex="1">
          <mxGeometry x="520" y="1210" width="120" height="60" as="geometry" />
        </mxCell>
        <mxCell id="qGoDjbubHYWRGXqa84R0-9" style="edgeStyle=orthogonalEdgeStyle;rounded=0;orthogonalLoop=1;jettySize=auto;html=1;entryX=0.5;entryY=1;entryDx=0;entryDy=0;" parent="1" source="qGoDjbubHYWRGXqa84R0-6" target="qGoDjbubHYWRGXqa84R0-4" edge="1">
          <mxGeometry relative="1" as="geometry">
            <Array as="points">
              <mxPoint x="1000" y="1300" />
              <mxPoint x="580" y="1300" />
            </Array>
          </mxGeometry>
        </mxCell>
        <mxCell id="qGoDjbubHYWRGXqa84R0-10" value="UserPass (auth role, current user and current webpage)" style="edgeLabel;html=1;align=center;verticalAlign=middle;resizable=0;points=[];fontStyle=1;fontSize=13;" parent="qGoDjbubHYWRGXqa84R0-9" vertex="1" connectable="0">
          <mxGeometry x="0.2043" y="6" relative="1" as="geometry">
            <mxPoint x="53" y="14" as="offset" />
          </mxGeometry>
        </mxCell>
        <mxCell id="qGoDjbubHYWRGXqa84R0-6" value="AuthLogic" style="shape=hexagon;perimeter=hexagonPerimeter2;whiteSpace=wrap;html=1;fixedSize=1;" parent="1" vertex="1">
          <mxGeometry x="940" y="1200" width="120" height="80" as="geometry" />
        </mxCell>
        <mxCell id="8sM5rEdZGpGG4iv7RLSA-4" style="edgeStyle=orthogonalEdgeStyle;rounded=0;orthogonalLoop=1;jettySize=auto;html=1;entryX=0.158;entryY=1.033;entryDx=0;entryDy=0;entryPerimeter=0;" parent="1" source="8sM5rEdZGpGG4iv7RLSA-1" target="qGoDjbubHYWRGXqa84R0-4" edge="1">
          <mxGeometry relative="1" as="geometry">
            <Array as="points">
              <mxPoint x="539" y="1450" />
            </Array>
          </mxGeometry>
        </mxCell>
        <mxCell id="8sM5rEdZGpGG4iv7RLSA-5" value="Records Allowed by UserPass" style="edgeLabel;html=1;align=center;verticalAlign=middle;resizable=0;points=[];fontStyle=1;fontSize=12;" parent="8sM5rEdZGpGG4iv7RLSA-4" vertex="1" connectable="0">
          <mxGeometry x="-0.1684" y="4" relative="1" as="geometry">
            <mxPoint as="offset" />
          </mxGeometry>
        </mxCell>
        <mxCell id="8sM5rEdZGpGG4iv7RLSA-1" value="Repository" style="shape=hexagon;perimeter=hexagonPerimeter2;whiteSpace=wrap;html=1;fixedSize=1;" parent="1" vertex="1">
          <mxGeometry x="940" y="1380" width="120" height="80" as="geometry" />
        </mxCell>
        <mxCell id="czs-m71-U2xIG_K7uHOS-4" style="edgeStyle=orthogonalEdgeStyle;rounded=0;orthogonalLoop=1;jettySize=auto;html=1;entryX=0;entryY=0.5;entryDx=0;entryDy=0;" edge="1" parent="1" source="czs-m71-U2xIG_K7uHOS-1" target="qGoDjbubHYWRGXqa84R0-4">
          <mxGeometry relative="1" as="geometry" />
        </mxCell>
        <mxCell id="czs-m71-U2xIG_K7uHOS-13" style="edgeStyle=orthogonalEdgeStyle;rounded=0;orthogonalLoop=1;jettySize=auto;html=1;" edge="1" parent="1" source="czs-m71-U2xIG_K7uHOS-1" target="qGoDjbubHYWRGXqa84R0-6">
          <mxGeometry relative="1" as="geometry" />
        </mxCell>
        <mxCell id="czs-m71-U2xIG_K7uHOS-14" value="&lt;b&gt;&lt;font style=&quot;font-size: 13px;&quot;&gt;Domain data like headers and requester&lt;/font&gt;&lt;/b&gt;" style="edgeLabel;html=1;align=center;verticalAlign=middle;resizable=0;points=[];" vertex="1" connectable="0" parent="czs-m71-U2xIG_K7uHOS-13">
          <mxGeometry x="-0.0048" y="-2" relative="1" as="geometry">
            <mxPoint as="offset" />
          </mxGeometry>
        </mxCell>
        <mxCell id="czs-m71-U2xIG_K7uHOS-1" value="Authorization Checks" style="rounded=0;whiteSpace=wrap;html=1;" vertex="1" parent="1">
          <mxGeometry x="420" y="1070" width="145" height="60" as="geometry" />
        </mxCell>
        <mxCell id="czs-m71-U2xIG_K7uHOS-3" style="edgeStyle=orthogonalEdgeStyle;rounded=0;orthogonalLoop=1;jettySize=auto;html=1;entryX=0;entryY=0.5;entryDx=0;entryDy=0;" edge="1" parent="1" source="czs-m71-U2xIG_K7uHOS-2" target="czs-m71-U2xIG_K7uHOS-1">
          <mxGeometry relative="1" as="geometry" />
        </mxCell>
        <mxCell id="czs-m71-U2xIG_K7uHOS-6" value="&lt;span style=&quot;font-size: 13px;&quot;&gt;Yes&lt;/span&gt;" style="edgeLabel;html=1;align=center;verticalAlign=middle;resizable=0;points=[];fontStyle=1;fontSize=13;" vertex="1" connectable="0" parent="czs-m71-U2xIG_K7uHOS-3">
          <mxGeometry x="0.1521" y="5" relative="1" as="geometry">
            <mxPoint as="offset" />
          </mxGeometry>
        </mxCell>
        <mxCell id="czs-m71-U2xIG_K7uHOS-5" style="edgeStyle=orthogonalEdgeStyle;rounded=0;orthogonalLoop=1;jettySize=auto;html=1;entryX=0;entryY=0.75;entryDx=0;entryDy=0;" edge="1" parent="1" source="czs-m71-U2xIG_K7uHOS-2" target="qGoDjbubHYWRGXqa84R0-4">
          <mxGeometry relative="1" as="geometry" />
        </mxCell>
        <mxCell id="czs-m71-U2xIG_K7uHOS-7" value="&lt;b&gt;&lt;font style=&quot;font-size: 13px;&quot;&gt;No&lt;/font&gt;&lt;/b&gt;" style="edgeLabel;html=1;align=center;verticalAlign=middle;resizable=0;points=[];" vertex="1" connectable="0" parent="czs-m71-U2xIG_K7uHOS-5">
          <mxGeometry x="-0.2197" y="-5" relative="1" as="geometry">
            <mxPoint y="-5" as="offset" />
          </mxGeometry>
        </mxCell>
        <mxCell id="czs-m71-U2xIG_K7uHOS-2" value="IsProtected?" style="ellipse;whiteSpace=wrap;html=1;aspect=fixed;" vertex="1" parent="1">
          <mxGeometry x="350" y="1210" width="90" height="90" as="geometry" />
        </mxCell>
        <mxCell id="czs-m71-U2xIG_K7uHOS-12" style="edgeStyle=orthogonalEdgeStyle;rounded=0;orthogonalLoop=1;jettySize=auto;html=1;" edge="1" parent="1" source="czs-m71-U2xIG_K7uHOS-9" target="czs-m71-U2xIG_K7uHOS-2">
          <mxGeometry relative="1" as="geometry" />
        </mxCell>
        <mxCell id="czs-m71-U2xIG_K7uHOS-9" value="Webpage Manager" style="rounded=0;whiteSpace=wrap;html=1;" vertex="1" parent="1">
          <mxGeometry x="240" y="1065" width="80" height="380" as="geometry" />
        </mxCell>
      </root>
    </mxGraphModel>
  </diagram>
</mxfile>
